<svg width="24" height="24" viewBox="0 0 24 24" fill="none" xmlns="http://www.w3.org/2000/svg">
<path d="M12 1.99805C13.3132 1.99805 14.6136 2.2567 15.8268 2.75925C17.0401 3.2618 18.1425 3.99839 19.0711 4.92698C19.9997 5.85556 20.7362 6.95796 21.2388 8.17121C21.7413 9.38447 22 10.6848 22 11.998C22 14.6502 20.9464 17.1938 19.0711 19.0691C17.1957 20.9445 14.6522 21.998 12 21.998C10.6868 21.998 9.38642 21.7394 8.17317 21.2368C6.95991 20.7343 5.85752 19.9977 4.92893 19.0691C3.05357 17.1938 2 14.6502 2 11.998C2 9.34588 3.05357 6.80234 4.92893 4.92698C6.8043 3.05162 9.34784 1.99805 12 1.99805ZM7 9.99805L12 14.998L17 9.99805H7Z" fill="#192638"/>
</svg>
