<svg width="24" height="24" viewBox="0 0 24 24" fill="none" xmlns="http://www.w3.org/2000/svg">
<path d="M14 13.002V17.002H10V13.002H7L12 8.00195L17 13.002H14ZM19.35 10.032C18.67 6.59195 15.64 4.00195 12 4.00195C9.11 4.00195 6.6 5.64195 5.35 8.03195C2.34 8.36195 0 10.902 0 14.002C0 15.5933 0.632141 17.1194 1.75736 18.2446C2.88258 19.3698 4.4087 20.002 6 20.002H19C19.6566 20.002 20.3068 19.8726 20.9134 19.6214C21.52 19.3701 22.0712 19.0018 22.5355 18.5375C22.9998 18.0732 23.3681 17.522 23.6194 16.9154C23.8707 16.3087 24 15.6586 24 15.002C24 12.362 21.95 10.222 19.35 10.032Z" fill="#192638"/>
</svg>
